PathFileType   4   (X/Y/Z)
DataRate  CameraRate  NumFrames  NumMarkers  Units  OrigDataRate  OrigDataStartFrame  OrigNumFrames  
  120.0      120.0        5         37         mm      120.0          95        151
Frame#      Time                    midhip                           hip_r                           hip_l                          knee_r                          knee_l                         ankle_r                         ankle_l                         midasis                          asis_r                          asis_l                          psis_r                          psis_l                    epicondLat_r                    epicondLat_l                    epicondMed_r                    epicondMed_l                  malleolusLat_r                  malleolusLat_l                 malleolusMedv_r                 malleolusMedv_l                    sternalnotch                  xyphoidprocess                            neck                           toe_r                           toe_l                     thighwand_r                     thighwand_l                     upperleg1_r                     upperleg1_l                     upperleg2_r                     upperleg2_l                     shankwand_r                     shankwand_l                     lowerleg1_r                     lowerleg1_l                   subclavicle_r                   subclavicle_l            
              X1          Y1          Z1          X2          Y2          Z2          X3          Y3          Z3          X4          Y4          Z4          X5          Y5          Z5          X6          Y6          Z6          X7          Y7          Z7          X8          Y8          Z8          X9          Y9          Z9          X10          Y10          Z10          X11          Y11          Z11          X12          Y12          Z12          X13          Y13          Z13          X14          Y14          Z14          X15          Y15          Z15          X16          Y16          Z16          X17          Y17          Z17          X18          Y18          Z18          X19          Y19          Z19          X20          Y20          Z20          X21          Y21          Z21          X22          Y22          Z22          X23          Y23          Z23          X24          Y24          Z24          X25          Y25          Z25          X26          Y26          Z26          X27          Y27          Z27          X28          Y28          Z28          X29          Y29          Z29          X30          Y30          Z30          X31          Y31          Z31          X32          Y32          Z32          X33          Y33          Z33          X34          Y34          Z34          X35          Y35          Z35          X36          Y36          Z36          X37          Y37          Z37          

	95	0.96667	-1589.144	766.871	290.629	-1599.780	763.530	346.964	-1578.509	770.212	234.294	-1584.076	419.708	349.615	-1613.368	419.181	213.154	-1573.594	64.206	330.404	-1855.664	153.978	210.661	-1556.228	839.778	300.436	-1561.602	839.648	411.582	-1550.854	839.907	189.290	-1739.296	867.258	323.423	-1733.597	864.922	271.476	-1545.220	418.991	409.243	-1611.100	409.383	154.555	-1571.465	417.892	300.378	-1594.084	401.354	273.973	-1579.233	62.354	367.431	-1865.469	163.453	176.803	-1573.465	62.685	296.803	-1854.412	154.857	244.573	-1577.330	1193.799	299.894	-1565.445	1092.802	289.856	-1688.131	1261.000	303.535	-1490.269	46.964	346.578	-1818.410	67.946	206.462	-1450.436	578.290	383.680	-1493.904	562.861	150.642	-1509.434	606.596	421.600	-1518.324	602.859	219.016	-1513.654	547.970	417.697	-1523.927	545.320	223.193	-1444.901	177.080	363.119	-1804.871	254.079	90.096	-1524.466	164.497	346.502	-1801.960	237.076	167.925	-1578.999	1189.459	356.015	-1570.518	1198.305	250.398
	96	0.97500	-1584.346	767.503	291.523	-1595.067	764.000	347.833	-1573.626	771.006	235.214	-1579.553	418.892	349.911	-1601.298	418.390	214.032	-1573.683	64.190	330.297	-1843.168	153.304	211.568	-1551.423	840.372	301.542	-1556.958	839.929	412.780	-1545.889	840.815	190.303	-1734.554	867.834	324.424	-1728.870	865.625	272.377	-1543.979	418.955	409.605	-1600.210	410.093	155.343	-1566.655	417.378	300.375	-1582.471	402.489	276.874	-1579.239	62.303	367.335	-1852.921	162.586	177.642	-1573.766	62.563	296.726	-1841.967	154.148	245.455	-1572.252	1194.230	300.814	-1560.673	1093.233	290.435	-1682.968	1261.923	303.958	-1490.199	46.988	346.474	-1804.070	68.308	206.684	-1447.567	577.471	384.279	-1485.072	565.039	152.157	-1506.908	605.900	422.129	-1510.763	605.057	220.078	-1510.464	548.327	418.169	-1515.164	547.283	224.875	-1444.340	176.595	362.906	-1792.672	253.242	90.851	-1524.434	163.992	346.477	-1789.859	236.370	168.684	-1573.848	1189.728	356.756	-1565.505	1198.863	251.490
	97	0.98333	-1579.662	768.182	292.347	-1590.465	764.523	348.631	-1568.860	771.841	236.063	-1573.139	417.084	350.251	-1590.861	418.871	214.952	-1573.771	64.180	330.204	-1830.376	152.315	212.533	-1546.706	840.971	302.585	-1552.370	840.220	413.901	-1541.042	841.722	191.269	-1729.686	868.412	325.316	-1724.180	866.359	273.339	-1542.894	418.926	409.991	-1589.374	410.837	156.129	-1559.777	416.707	298.995	-1573.637	404.010	278.409	-1579.236	62.253	367.254	-1840.054	161.351	178.519	-1574.252	62.576	296.648	-1828.569	153.305	246.290	-1567.385	1194.840	301.572	-1556.026	1093.845	290.926	-1677.718	1262.701	304.334	-1490.166	47.009	346.412	-1789.044	68.631	206.817	-1444.875	576.581	384.868	-1476.349	567.260	153.650	-1505.005	605.055	422.848	-1503.417	607.213	221.239	-1507.190	548.054	418.360	-1507.278	549.005	226.374	-1443.809	176.164	362.685	-1780.221	251.990	91.607	-1524.717	163.688	346.468	-1777.196	235.278	168.723	-1569.006	1190.183	357.618	-1560.614	1199.599	252.145
	98	0.99167	-1575.050	768.857	293.086	-1585.917	765.052	349.347	-1564.183	772.662	236.824	-1569.991	416.697	350.664	-1582.043	421.179	215.801	-1573.856	64.182	330.134	-1817.297	151.025	213.557	-1542.073	841.568	303.553	-1547.825	840.515	414.926	-1536.320	842.622	192.180	-1724.560	868.953	326.150	-1719.533	867.109	274.304	-1541.957	418.907	410.413	-1578.602	411.627	156.912	-1556.392	417.003	298.013	-1566.198	405.408	277.855	-1579.224	62.210	367.196	-1826.897	159.784	179.449	-1574.347	62.593	296.577	-1815.369	152.095	247.253	-1562.613	1195.564	302.295	-1551.296	1094.588	291.426	-1672.575	1263.223	305.455	-1490.169	47.022	346.388	-1773.390	68.951	206.845	-1442.336	575.628	385.443	-1467.740	569.532	155.101	-1502.404	604.615	423.445	-1495.710	609.426	222.823	-1504.444	547.486	418.505	-1499.556	550.569	227.572	-1443.329	175.782	362.471	-1767.575	250.434	92.372	-1524.380	163.523	346.386	-1764.480	234.084	169.365	-1564.301	1190.751	358.637	-1555.780	1200.461	252.575
	99	1.00000	-1570.535	769.500	293.742	-1581.425	765.553	349.990	-1559.645	773.447	237.495	-1569.120	417.444	351.143	-1570.445	422.449	216.535	-1573.938	64.197	330.092	-1803.929	149.445	214.636	-1537.522	842.156	304.444	-1543.315	840.809	415.848	-1531.728	843.503	193.041	-1719.334	869.460	326.905	-1714.963	867.857	275.196	-1541.169	418.900	410.878	-1567.912	412.483	157.692	-1555.587	418.055	297.623	-1554.020	405.778	277.761	-1579.213	62.176	367.164	-1813.467	157.917	180.438	-1574.207	62.276	296.572	-1802.426	150.561	248.367	-1557.730	1196.198	303.306	-1546.471	1095.232	292.279	-1667.494	1263.808	306.649	-1490.202	47.030	346.391	-1757.174	69.292	206.759	-1439.947	574.636	386.011	-1459.258	571.869	156.510	-1499.252	604.314	424.027	-1487.733	611.548	224.408	-1501.978	547.253	418.778	-1490.390	552.768	228.625	-1442.927	175.437	362.299	-1754.798	248.689	93.160	-1523.905	163.015	346.254	-1751.960	232.767	170.549	-1559.441	1191.281	359.810	-1550.875	1201.184	253.424
